<?xml version="1.0" encoding="UTF-8" standalone="no"?>
<!-- Created with Inkscape (http://www.inkscape.org/) -->

<svg
   width="500"
   height="500"
   viewBox="0 0 132.29166 132.29167"
   version="1.1"
   id="svg1"
   xml:space="preserve"
   inkscape:version="1.4 (86a8ad7, 2024-10-11)"
   sodipodi:docname="SC.svg"
   xmlns:inkscape="http://www.inkscape.org/namespaces/inkscape"
   xmlns:sodipodi="http://sodipodi.sourceforge.net/DTD/sodipodi-0.dtd"
   xmlns="http://www.w3.org/2000/svg"
   xmlns:svg="http://www.w3.org/2000/svg"><sodipodi:namedview
     id="namedview1"
     pagecolor="#ffffff"
     bordercolor="#666666"
     borderopacity="1.0"
     inkscape:showpageshadow="2"
     inkscape:pageopacity="0.0"
     inkscape:pagecheckerboard="0"
     inkscape:deskcolor="#d1d1d1"
     inkscape:document-units="mm"
     inkscape:zoom="1.5162318"
     inkscape:cx="231.82472"
     inkscape:cy="240.3986"
     inkscape:window-width="1920"
     inkscape:window-height="1111"
     inkscape:window-x="-9"
     inkscape:window-y="-9"
     inkscape:window-maximized="1"
     inkscape:current-layer="layer4" /><defs
     id="defs1" /><g
     inkscape:label="Layer 1"
     inkscape:groupmode="layer"
     id="layer1"><path
       style="fill:#d77813;fill-opacity:1;stroke:none;stroke-width:0.264583px;stroke-linecap:butt;stroke-linejoin:miter;stroke-opacity:1"
       d="m 44.277854,83.926743 c 6.428528,3.347527 9.529251,7.213381 10.364803,14.313309 -0.559304,7.770958 -12.40981,13.160978 -26.220491,14.621778 5.814155,2.24879 17.528666,2.62715 22.025215,1.2339 6.935375,-2.83375 10.569084,-6.69952 14.745169,-10.85837 7.721825,4.47155 10.739346,8.63556 13.881436,14.4305 C 78.203185,107.66573 74.277988,94.403292 66.203945,87.98933 L 52.207357,77.91803 c -4.517805,-3.107153 -7.400257,-7.888473 -7.86781,-12.129697 -0.640102,5.880661 -6.259875,9.730557 -0.06169,18.13841 z"
       id="path2"
       sodipodi:nodetypes="ccccccccccc" /><path
       style="fill:#d77813;fill-opacity:1;stroke:none;stroke-width:0.264583px;stroke-linecap:butt;stroke-linejoin:miter;stroke-opacity:1"
       d="m 49.460256,57.582861 c 14.33291,-1.326268 16.726472,0.987183 21.40826,3.640021 -8.785943,-0.767977 -19.388641,-1.690775 -26.775748,8.822425 z"
       id="path3"
       sodipodi:nodetypes="cccc" /></g><g
     inkscape:groupmode="layer"
     id="layer2"
     inkscape:label="Layer 2"><path
       style="fill:#0c1c45;fill-opacity:1;stroke:none;stroke-width:0.264583px;stroke-linecap:butt;stroke-linejoin:miter;stroke-opacity:1"
       d="M 34.490116,77.909262 C 32.193939,73.06621 32.297327,64.63263 36.812725,56.657433 43.943042,46.444431 56.075922,45.616934 66.549847,44.565157 57.082756,50.709654 48.616037,56.623268 44.586329,70.723955 43.327294,78.317038 44.87969,80.711289 45.552283,84.645273 42.778604,83.308121 35.18208,79.631225 34.490116,77.909262 Z"
       id="path1"
       sodipodi:nodetypes="cccccc" /><circle
       style="fill:#d77813;fill-opacity:1;stroke:none;stroke-width:1.9;stroke-opacity:1"
       id="path4"
       cx="38.197079"
       cy="38.665398"
       r="8.205471" /></g><g
     inkscape:groupmode="layer"
     id="layer5"
     inkscape:label="Layer 5"><path
       style="fill:#0c1c45;fill-opacity:1;stroke:none;stroke-width:0.264583px;stroke-linecap:butt;stroke-linejoin:miter;stroke-opacity:1"
       d="m 82.189777,45.195651 c 8.206498,7.547234 13.71679,4.534326 19.195063,1.396005 -4.286893,4.041769 -8.783713,6.510314 -16.403055,7.765278 z"
       id="path6"
       sodipodi:nodetypes="cccc" /></g><g
     inkscape:groupmode="layer"
     id="layer4"
     inkscape:label="Layer 4"><path
       style="fill:#d77813;fill-opacity:1;stroke:none;stroke-width:0.264583px;stroke-linecap:butt;stroke-linejoin:miter;stroke-opacity:1"
       d="M 95.190069,26.873091 C 87.663372,26.863891 74.082843,30.004187 72.504993,39.175383 71.43273,50.565873 84.935183,60.595117 96.935075,63.867215 89.901478,58.737009 84.477687,53.969776 83.523177,44.435954 82.856641,35.313056 87.960195,30.944943 95.190069,26.873091 Z"
       id="path5"
       sodipodi:nodetypes="ccccc" /><circle
       style="fill:#0c1c45;fill-opacity:1;stroke:none;stroke-width:1.9;stroke-opacity:1"
       id="path7"
       cx="68.647484"
       cy="26.673531"
       r="6.1695275" /></g></svg>
